PathFileType	4	(X/Y/Z)	Patient4_TMGait_0pt6_01_right_47.trc.trc
DataRate	CameraRate	NumFrames	NumMarkers	Units	OrigDataRate	OrigDataStartFrame	OrigNumFrames
80.924855491330	80.924855491330	5	33	mm	80.924855491330	53	       141
Frame#	Time	Sacral			L.Shoulder			Chest			R.Shoulder			Neck			R.ASIS			L.ASIS			R.Thigh.Superior			R.Thigh.Lateral			R.Thigh.Inferior			R.Patella			L.Thigh.Superior			L.Thigh.Lateral			L.Thigh.Inferior			L.Patella			L.Shank.Superior			L.Shank.Lateral			L.Shank.Inferior			R.Shank.Superior			R.Shank.Lateral			R.Shank.Inferior			R.Heel			R.Midfoot.Superior			R.Midfoot.Lateral			R.Toe			L.Heel			L.Midfoot.Lateral			L.Midfoot.Superior			L.Toe			L.Elbow			L.Wrist			R.Elbow			R.Wrist			
		X1	Y1	Z1	X2	Y2	Z2	X3	Y3	Z3	X4	Y4	Z4	X5	Y5	Z5	X6	Y6	Z6	X7	Y7	Z7	X8	Y8	Z8	X9	Y9	Z9	X10	Y10	Z10	X11	Y11	Z11	X12	Y12	Z12	X13	Y13	Z13	X14	Y14	Z14	X15	Y15	Z15	X16	Y16	Z16	X17	Y17	Z17	X18	Y18	Z18	X19	Y19	Z19	X20	Y20	Z20	X21	Y21	Z21	X22	Y22	Z22	X23	Y23	Z23	X24	Y24	Z24	X25	Y25	Z25	X26	Y26	Z26	X27	Y27	Z27	X28	Y28	Z28	X29	Y29	Z29	X30	Y30	Z30	X31	Y31	Z31	X32	Y32	Z32	X33	Y33	Z33	

53	57.242571428571	792.074029263600	1011.747918382599	490.989308912508	942.859468692477	1440.294400844103	305.524024618653	1062.355048299117	1371.767752442797	454.824784613452	996.010709438217	1441.207309672795	636.379307175199	938.709274155496	1498.701677420151	461.244428050966	1022.259958472769	946.915501215371	596.064115605142	994.629056188765	966.956549282342	322.796952458469	1036.621993001142	737.555693537082	567.161798498278	939.960332133771	636.678062955199	624.258689586358	1009.995223631120	578.251975626016	546.198590842362	999.581310576186	494.699685605785	550.640485747329	1083.306622704478	792.635098203475	344.502027198032	1042.379350244084	664.898356978365	263.029212585649	1152.630707148606	609.197986420343	316.609754293784	1175.749341860206	526.876285816001	306.472824305159	1129.656149973619	450.933097693291	301.628606787931	1008.336540301271	364.618808226989	259.496131716990	1044.927437945062	237.916202809310	311.138879735142	972.398959672463	407.697727206879	552.685044760395	897.661529300692	300.943806081347	603.436830681728	949.225638025085	209.093591400204	541.696049207453	821.333976004927	42.472168707605	491.468365130348	989.853565300044	96.965645879521	544.012907874879	897.948960665208	36.494485310060	573.844087267776	1106.225454929418	43.099078563027	581.583256579310	892.092574624938	110.984610226792	358.115470499949	955.893636793863	89.402287285424	273.029331870646	1052.911328242477	132.480170834553	288.820998870894	1161.881957667782	54.457010394801	252.623058874106	879.154780467800	1086.429969285935	203.802019016732	889.436288463358	828.054996941735	202.734885241092	1085.878700716548	1104.694908148641	753.049787246549	1326.991013216843	1026.067301886746	706.710664655376	
54	57.254928571429	791.017188312892	1011.660606750713	491.459258150685	941.958098029142	1440.040490868574	305.922317253187	1061.925184005770	1371.033689967632	454.623274733576	996.487408587660	1440.520754324067	636.480504069935	938.479285353783	1498.152865472026	461.605357765320	1021.303238595363	946.118382189735	595.872753960184	993.130122546826	966.347068332018	322.710047603812	1033.489903821446	736.484739034863	566.744798104657	935.914365050568	636.400342592336	624.374095906862	1004.822326096423	577.445515688232	546.072990627087	993.619885693850	494.145514390586	550.569005338385	1081.055196693402	791.836255922151	344.587582665663	1040.476044797321	664.114592523836	262.947877752311	1150.122648250411	608.538431627407	317.760656855759	1174.482661878899	528.246230551025	307.436252487080	1132.221955988032	452.052526875852	301.901491467066	1016.849706682104	358.646064063843	258.840339008540	1061.345336068850	234.023608736570	310.054886689176	966.016314074770	407.371400058513	552.690660505710	891.025029374621	300.802239864217	603.574982384263	942.153067770568	208.853241477179	541.613381461432	813.917653621454	42.302499998118	491.482017121313	982.339570407961	96.899743741294	543.949591820371	890.459985343999	36.453549096120	573.849996372789	1098.713937165384	43.173197008159	581.634827615787	917.015054599755	97.302637146916	356.176561581113	982.204185615965	80.313336146380	271.099686456539	1076.268789132304	129.250237482403	287.289941190954	1189.985655821898	58.374470529016	250.991718096952	869.341492419548	1088.404343389097	203.916987519498	873.599991566908	829.926689993008	204.246904421405	1093.127793835975	1106.828054523541	753.009487245307	1337.747564422390	1044.404840230199	703.063588678912	
55	57.267285714286	789.987288300959	1011.433932482997	491.806960142964	941.116281708020	1439.686434277339	306.193764268888	1061.541180148665	1370.150909526944	454.283910537878	997.002309638604	1439.652127937004	636.448463608604	938.305456138487	1497.477816279710	461.853971842268	1020.403250674606	945.188467665891	595.497426201545	991.610826068086	965.536338305468	322.453214701649	1030.535860584838	735.324024969161	566.292693534750	932.036466112394	636.047187400580	624.415307148514	999.820358798514	576.561046641522	545.870778504429	987.844763869604	493.507971063356	550.375251505117	1078.513015649433	790.522510736631	344.561936997580	1038.081006094432	662.898516910772	262.831327830868	1147.011020119123	607.288965476871	319.017063560525	1172.559231950432	529.142030218301	308.594078499850	1134.160710469360	452.993974762139	302.374083729467	1025.273280545451	352.856732156403	258.169211148577	1077.368450983714	230.862135256003	309.207124845122	959.776780404915	406.973491634105	552.625324134766	884.539630305694	300.619427857096	603.692371380039	935.137418948274	208.551709160637	541.468849437727	806.500854377017	42.106136777905	491.497700885185	974.805609488750	96.818763830434	543.870018200713	882.965027841683	36.408404627487	573.861960222925	1091.204437218449	43.246908959282	581.683975905398	941.984544883887	85.025915338734	354.202426814900	1008.554392182849	72.509400522908	269.383104183857	1099.264494730840	127.077020434323	286.165839367818	1217.331345593434	63.461699919862	250.287404417847	859.736727360536	1090.473298636971	204.044847550875	858.579355624034	831.991387219555	205.757874532647	1100.098256509533	1108.857382666314	752.755975819670	1347.071699886020	1062.642973475343	699.291267561855	
56	57.279642857143	788.992848498680	1011.108649248281	492.055465467365	940.334285299706	1439.260691401892	306.328360960335	1061.206838008992	1369.157985256091	453.795841075833	997.573250446113	1438.657193742472	636.267045794493	938.190447509644	1496.718243933391	461.971697114341	1019.572367895301	944.172507659369	594.948031442507	990.054467559423	964.579889755157	322.026261550636	1027.744252974594	734.100471292930	565.809235939964	928.314098716781	635.646124246115	624.379737043884	994.987390653625	575.619761606099	545.597647208981	982.256382126830	492.805844045143	550.071713885994	1075.711493011907	788.819547086232	344.424461884434	1035.246034100256	661.357231098170	262.660564653713	1143.424794455820	605.601860273794	320.259160436061	1170.096254806886	529.656193709138	309.855129417283	1135.531215881329	453.819266433711	302.999424186407	1033.498326083617	347.417587319777	257.538929273506	1092.772923208676	228.531321474100	308.648050906094	953.676686873155	406.518542687651	552.491418458806	878.196914597263	300.419681464953	603.792819106220	928.176371261051	208.208071235280	541.279140200953	799.076855306689	41.900218858270	491.521413322966	967.255488697311	96.729396305796	543.786446680855	875.463580629392	36.362473577977	573.883821527344	1083.697379162274	43.317360910324	581.729944169882	966.582719907714	74.381232238006	352.362283161154	1034.512484808553	66.114618381772	268.021469191570	1121.558123461896	126.016595690864	285.510421822879	1243.543710077394	69.639628036487	250.543302215145	850.502816313389	1092.593305796643	204.226465793605	844.363623509248	834.176043025206	207.238507439973	1106.790105068377	1110.795958106191	752.279258490566	1354.985709967926	1080.585108716290	695.440824292717	
57	57.292000000000	788.043310121264	1010.727901038893	492.226350291037	939.609201516795	1438.790204953790	306.317022409058	1060.925617236365	1368.096388240216	453.148787085278	998.216939846790	1437.596898236106	635.920395789141	938.134388753176	1495.915168214674	461.939303022716	1018.820044152385	943.115541429995	594.232767323617	988.452449477138	963.539153850526	321.430952931536	1025.098777655132	732.843055987102	565.279659657853	924.748513034725	635.221967132041	624.260874225844	990.329809123602	574.645485109642	545.246715789553	976.865629472966	492.057245994578	549.666770407922	1072.702653400648	786.865954607836	344.175259608809	1032.049416104479	659.599935772650	262.430931613521	1139.519235174054	603.634820056206	321.372189369654	1167.225989885126	529.879547376688	311.128051788271	1136.397402874412	454.574432517237	303.721452094210	1041.370499019186	342.460214393690	257.026412116282	1107.316739032711	227.054841197809	308.409023604719	947.725898299439	406.019423144945	552.287443008545	871.997309195352	300.225379411376	603.875793662908	921.272774111810	207.840020108620	541.058269979500	791.641462036471	41.702632460642	491.557273206075	959.694707421652	96.637603647776	543.708591974383	867.955989841128	36.319035273763	573.917940686161	1076.193795289678	43.381311737899	581.771953448831	990.348296487308	65.490859162314	350.841142438062	1059.577436913887	61.147722469906	267.140624477073	1142.775377639570	126.021843450925	285.342967899527	1268.217088738387	76.701709008310	251.683927295519	841.790005087389	1094.710582642148	204.483898766938	830.961307782996	836.415424854775	208.660461987098	1113.192251530048	1112.659376147267	751.574867418158	1361.540134618809	1098.037384191232	691.559556842662	
